<svg xmlns="http://www.w3.org/2000/svg" viewBox="0 0 21.42 24.42">
  <g id="Layer_2" data-name="Layer 2">
    <g id="Layer_1-2" data-name="Layer 1">
      <g>
        <path d="M12.88,2,3.23,7.09V20.18a3.18,3.18,0,0,0-1.48.27C.41,21-.31,22.33.13,23.35s1.89,1.37,3.22.79a2.8,2.8,0,0,0,1.73-2h.15V8.3l5.65-3V16.68A3.19,3.19,0,0,0,9.4,17c-1.33.58-2.06,1.87-1.62,2.89s1.89,1.37,3.23.79a2.53,2.53,0,0,0,1.71-2.56h.16Z" style="fill: #adadad"/>
        <path d="M21.42,9l-6.31,3.33v8.56a2.12,2.12,0,0,0-1,.17A1.59,1.59,0,0,0,13.08,23a1.56,1.56,0,0,0,2.11.51,1.78,1.78,0,0,0,1.13-1.31h.1v-9l3.69-1.95V18.6a2.1,2.1,0,0,0-1,.18,1.56,1.56,0,0,0-1.06,1.89,1.56,1.56,0,0,0,2.11.52,1.66,1.66,0,0,0,1.12-1.67h.1Z" style="fill: #adadad"/>
        <path d="M19.12,0,16.26,1.51V5.4a1,1,0,0,0-.44.08.7.7,0,0,0-.48.86.7.7,0,0,0,.95.23A.84.84,0,0,0,16.81,6h0V1.87L18.53,1V4.36a1,1,0,0,0-.44.08.71.71,0,0,0-.48.86.72.72,0,0,0,1,.24.77.77,0,0,0,.51-.76h0Z" style="fill: #adadad"/>
      </g>
    </g>
  </g>
</svg>
