<svg xmlns="http://www.w3.org/2000/svg" viewBox="0 0 32.55 33.13">
  <g id="Layer_2" data-name="Layer 2">
    <g id="Layer_1-2" data-name="Layer 1">
      <g id="logo">
        <rect x="0.13" y="0.13" width="28.11" height="32.88" style="fill: #03261f;stroke: #9b9b9b;stroke-miterlimit: 10;stroke-width: 0.25px"/>
        <g>
          <g>
            <rect x="0.82" y="0.89" width="2.08" height="2.08" style="fill: #235e53;stroke: #9b9b9b;stroke-miterlimit: 10;stroke-width: 0.25px"/>
            <rect x="0.82" y="4.49" width="2.08" height="2.08" style="fill: #235e53;stroke: #9b9b9b;stroke-miterlimit: 10;stroke-width: 0.25px"/>
            <rect x="0.82" y="8.08" width="2.08" height="2.08" style="fill: #235e53;stroke: #9b9b9b;stroke-miterlimit: 10;stroke-width: 0.25px"/>
            <rect x="0.82" y="11.68" width="2.08" height="2.08" style="fill: #235e53;stroke: #9b9b9b;stroke-miterlimit: 10;stroke-width: 0.25px"/>
            <rect x="0.82" y="15.28" width="2.08" height="2.08" style="fill: #235e53;stroke: #9b9b9b;stroke-miterlimit: 10;stroke-width: 0.25px"/>
            <rect x="0.82" y="18.88" width="2.08" height="2.08" style="fill: #235e53;stroke: #9b9b9b;stroke-miterlimit: 10;stroke-width: 0.25px"/>
            <rect x="0.82" y="22.48" width="2.08" height="2.08" style="fill: #235e53;stroke: #9b9b9b;stroke-miterlimit: 10;stroke-width: 0.25px"/>
            <rect x="0.82" y="26.08" width="2.08" height="2.08" style="fill: #235e53;stroke: #9b9b9b;stroke-miterlimit: 10;stroke-width: 0.25px"/>
            <rect x="0.82" y="29.68" width="2.08" height="2.08" style="fill: #235e53;stroke: #9b9b9b;stroke-miterlimit: 10;stroke-width: 0.25px"/>
          </g>
          <g>
            <rect x="25.4" y="0.89" width="2.08" height="2.08" style="fill: #235e53;stroke: #9b9b9b;stroke-miterlimit: 10;stroke-width: 0.25px"/>
            <rect x="25.4" y="4.49" width="2.08" height="2.08" style="fill: #235e53;stroke: #9b9b9b;stroke-miterlimit: 10;stroke-width: 0.25px"/>
            <rect x="25.4" y="8.08" width="2.08" height="2.08" style="fill: #235e53;stroke: #9b9b9b;stroke-miterlimit: 10;stroke-width: 0.25px"/>
            <rect x="25.4" y="11.68" width="2.08" height="2.08" style="fill: #235e53;stroke: #9b9b9b;stroke-miterlimit: 10;stroke-width: 0.25px"/>
            <rect x="25.4" y="15.28" width="2.08" height="2.08" style="fill: #235e53;stroke: #9b9b9b;stroke-miterlimit: 10;stroke-width: 0.25px"/>
            <rect x="25.4" y="18.88" width="2.08" height="2.08" style="fill: #235e53;stroke: #9b9b9b;stroke-miterlimit: 10;stroke-width: 0.25px"/>
            <rect x="25.4" y="22.48" width="2.08" height="2.08" style="fill: #235e53;stroke: #9b9b9b;stroke-miterlimit: 10;stroke-width: 0.25px"/>
            <rect x="25.4" y="26.08" width="2.08" height="2.08" style="fill: #235e53;stroke: #9b9b9b;stroke-miterlimit: 10;stroke-width: 0.25px"/>
            <rect x="25.4" y="29.68" width="2.08" height="2.08" style="fill: #235e53;stroke: #9b9b9b;stroke-miterlimit: 10;stroke-width: 0.25px"/>
          </g>
        </g>
        <g>
          <rect x="3.79" y="0.89" width="20.77" height="9.27" style="fill: #235e53;stroke: #9b9b9b;stroke-miterlimit: 10;stroke-width: 0.25px"/>
          <rect x="3.79" y="11.68" width="20.77" height="9.27" style="fill: #235e53;stroke: #9b9b9b;stroke-miterlimit: 10;stroke-width: 0.25px"/>
          <rect x="3.79" y="22.48" width="20.77" height="9.27" style="fill: #235e53;stroke: #9b9b9b;stroke-miterlimit: 10;stroke-width: 0.25px"/>
        </g>
        <path d="M31.44,28.9l-1.06-1v-1h-2v1l-1,1.06h-1v2h1l1.06,1v1h2V32l1-1.06h1v-2Zm-1.06,0Zm-1,2.25a1.23,1.23,0,1,1,1.22-1.23A1.23,1.23,0,0,1,29.42,31.15Z" style="fill: #235e53;stroke: #9b9b9b;stroke-miterlimit: 10;stroke-width: 0.25px"/>
      </g>
    </g>
  </g>
</svg>
